# This file uses centimeters as units for non-parametric coordinates.

mtllib ForMyPanel.mtl
g default
v -1.544229 0.000000 0.500000
v 1.544229 0.000000 0.500000
v -1.544229 1.103409 0.500000
v 1.544229 1.103409 0.500000
v -1.544229 1.754431 -0.500000
v 1.544229 1.754431 -0.500000
v -1.544229 0.000000 -0.500000
v 1.544229 0.000000 -0.500000
vt 0.298041 0.664760
vt 0.298041 0.335240
vt 0.596954 0.335240
vt 0.486035 0.664760
vt 0.001861 0.998008
vt 0.001861 0.668488
vt 0.189855 0.668488
vt 0.300773 0.998008
vt 0.196831 0.001992
vt 0.526350 0.001992
vt 0.526350 0.331512
vt 0.196831 0.331512
vt 0.602684 0.335240
vt 0.932204 0.335240
vt 0.932204 0.664760
vt 0.602684 0.664760
vt 0.001861 0.331512
vt 0.001861 0.001992
vt 0.189855 0.001992
vt 0.189855 0.331512
vt 0.533613 0.331512
vt 0.533613 0.001992
vt 0.832526 0.001992
vt 0.832526 0.331512
vn 0.000000 0.000000 1.000000
vn 0.000000 0.000000 1.000000
vn 0.000000 0.000000 1.000000
vn 0.000000 0.000000 1.000000
vn 0.000000 0.838052 0.545590
vn 0.000000 0.838052 0.545590
vn 0.000000 0.838052 0.545590
vn 0.000000 0.838052 0.545590
vn 0.000000 0.000000 -1.000000
vn 0.000000 0.000000 -1.000000
vn 0.000000 0.000000 -1.000000
vn 0.000000 0.000000 -1.000000
vn 0.000000 -1.000000 0.000000
vn 0.000000 -1.000000 0.000000
vn 0.000000 -1.000000 0.000000
vn 0.000000 -1.000000 0.000000
vn 1.000000 0.000000 0.000000
vn 1.000000 0.000000 0.000000
vn 1.000000 0.000000 0.000000
vn 1.000000 0.000000 0.000000
vn -1.000000 0.000000 0.000000
vn -1.000000 0.000000 0.000000
vn -1.000000 0.000000 0.000000
vn -1.000000 0.000000 0.000000
s off
g pCube1
usemtl initialShadingGroup
f 1/17/1 2/18/2 4/19/3 3/20/4
f 3/9/5 4/10/6 6/11/7 5/12/8
f 5/21/9 6/22/10 8/23/11 7/24/12
f 7/13/13 8/14/14 2/15/15 1/16/16
f 2/1/17 8/2/18 6/3/19 4/4/20
f 7/5/21 1/6/22 3/7/23 5/8/24
