# Blender v3.2.0 OBJ File: 'lom.blend'
# www.blender.org
mtllib lom2.mtl
o Cube
v 0.016459 0.541859 -0.014530
v 0.016459 -0.541859 -0.014530
v 0.016459 0.541859 0.014530
v 0.016459 -0.541859 0.014530
v -0.016459 0.541859 -0.014530
v -0.016459 -0.541859 -0.014530
v -0.016459 0.541859 0.014530
v -0.016459 -0.541859 0.014530
v 0.016459 0.611496 -0.091639
v 0.016459 0.611496 -0.062580
v -0.016459 0.611496 -0.091639
v -0.016459 0.611496 -0.062580
v 0.016459 -0.612781 0.070229
v 0.016459 -0.612781 0.099288
v -0.016459 -0.612781 0.070229
v -0.016459 -0.612781 0.099288
vt 0.625000 0.250000
vt 0.625000 0.000000
vt 0.625000 0.000000
vt 0.625000 0.250000
vt 0.375000 0.750000
vt 0.625000 0.750000
vt 0.625000 1.000000
vt 0.375000 1.000000
vt 0.375000 0.000000
vt 0.375000 0.250000
vt 0.375000 0.500000
vt 0.375000 0.500000
vt 0.375000 0.250000
vt 0.625000 0.500000
vt 0.625000 0.500000
vt 0.875000 0.500000
vt 0.875000 0.750000
vt 0.625000 0.750000
vt 0.625000 1.000000
vt 0.125000 0.500000
vt 0.375000 0.750000
vt 0.125000 0.750000
vt 0.375000 1.000000
vt 0.375000 0.000000
vn -1.0000 -0.0000 0.0000
vn 0.0000 0.0000 1.0000
vn 0.0000 -0.7669 -0.6417
vn 1.0000 0.0000 0.0000
vn 0.0000 0.0000 -1.0000
vn 0.0000 1.0000 0.0000
vn 0.0000 -0.7422 -0.6702
vn 0.0000 0.7422 0.6702
vn 0.0000 -1.0000 0.0000
vn 0.0000 0.7669 0.6417
usemtl Material
s off
f 5/1/1 7/2/1 12/3/1 11/4/1
f 4/5/2 3/6/2 7/7/2 8/8/2
f 8/9/1 7/2/1 5/1/1 6/10/1
f 6/10/3 2/11/3 13/12/3 15/13/3
f 2/11/4 1/14/4 3/6/4 4/5/4
f 6/10/5 5/1/5 1/14/5 2/11/5
f 9/15/6 11/16/6 12/17/6 10/18/6
f 3/6/4 1/14/4 9/15/4 10/18/4
f 1/14/7 5/1/7 11/4/7 9/15/7
f 7/7/8 3/6/8 10/18/8 12/19/8
f 15/20/9 13/12/9 14/21/9 16/22/9
f 4/5/10 8/8/10 16/23/10 14/21/10
f 8/9/1 6/10/1 15/13/1 16/24/1
f 2/11/4 4/5/4 14/21/4 13/12/4
