# This file uses centimeters as units for non-parametric coordinates.

mtllib Gaechn.mtl
g default
v 0.083694 -0.201226 0.000000
v 0.167387 -0.350254 0.000000
v 0.274318 -0.350254 0.184545
v 0.137159 -0.106023 0.184545
v -0.137159 -0.106023 0.184545
v 0.223668 0.048019 0.114055
v -0.223667 0.048019 0.114055
v 0.223668 0.048019 0.112622
v -0.223667 0.048019 0.112622
v 0.447335 -0.350254 0.114055
v 0.447335 -0.350254 -0.114055
v 0.223668 0.048019 -0.114055
v 0.223668 0.048019 -0.112622
v 0.223820 0.047748 -0.112622
v 0.223820 0.047748 0.112622
v -0.223727 2.733035 -0.112622
v -0.223820 2.733035 -0.112622
v -0.223820 2.733035 -0.112613
v -0.397876 3.199700 -0.165579
v -0.658026 3.199700 -0.100952
v -0.260151 3.515274 -0.108110
v 0.223820 2.733035 -0.111705
v 0.223820 2.733035 -0.112622
v 0.214911 2.733035 -0.112622
v -0.237094 3.199700 0.003617
v -0.429241 3.726338 -0.065434
v -0.397876 3.199700 0.172812
v -0.260151 3.515274 0.115344
v -0.658026 3.199700 0.108185
v -0.155647 3.384830 0.003617
v -0.429241 3.726338 0.072668
v 0.389059 3.199700 -0.165579
v 0.228277 3.199700 0.003617
v 0.251334 3.515274 -0.121014
v 0.146830 3.384830 0.003617
v 0.649209 3.199700 -0.100952
v 0.251334 3.515274 0.128248
v 0.389059 3.199700 0.172812
v 0.420424 3.726338 -0.073410
v 0.649209 3.199700 0.108185
v 0.420424 3.726338 0.080643
v -0.223820 2.690566 0.108185
v -0.466586 2.781545 0.108185
v -0.466586 2.781545 -0.100952
v -0.223820 2.690567 -0.100952
v -0.282632 2.947978 -0.165579
v -0.282632 2.947978 0.172812
v -0.168942 3.050838 0.003617
v -0.004408 2.843711 -0.165579
v -0.004408 2.989178 0.003617
v -0.004408 2.843711 0.172812
v 0.273815 2.947978 -0.165579
v 0.160125 3.050838 0.003617
v 0.223820 2.693871 -0.100952
v 0.457769 2.781545 -0.100952
v 0.457769 2.781545 0.108185
v 0.223820 2.693871 0.108185
v 0.273815 2.947978 0.172812
v 0.223820 2.710029 0.112622
v -0.004408 2.624498 0.112622
v -0.223820 2.706725 0.112622
v -0.223820 0.047748 0.112622
v -0.223820 0.047748 -0.112622
v -0.004408 2.650843 -0.112622
v -0.223667 0.048019 -0.112622
v -0.083693 -0.201226 0.000000
v -0.223667 0.048019 -0.114055
v 0.274318 -0.350254 -0.184545
v 0.137159 -0.106023 -0.184545
v 0.137159 -0.594485 0.184545
v 0.223668 -0.748527 0.114055
v -0.137159 -0.106023 -0.184545
v 0.083693 -0.499282 0.000000
v 0.223668 -0.748527 -0.114055
v -0.274318 -0.350254 0.184545
v -0.447335 -0.350254 0.114055
v -0.167387 -0.350254 0.000000
v 0.137159 -0.594485 -0.184545
v -0.083693 -0.499282 0.000000
v -0.137159 -0.594485 0.184545
v -0.274318 -0.350254 -0.184545
v -0.223668 -0.748527 0.114055
v -0.447335 -0.350254 -0.114055
v -0.137159 -0.594485 -0.184545
v -0.223668 -0.748527 -0.114055
v -0.223104 0.048019 0.112622
v 0.223715 0.047934 0.112622
v 0.223449 0.048019 -0.112622
v -0.223812 0.047762 -0.112622
v 0.223820 2.732864 -0.111659
v -0.194524 0.048019 -0.112622
v -0.222415 0.064328 -0.112622
v -0.223820 0.065148 -0.112622
v -0.223820 1.422428 0.001530
v 0.223820 1.424250 0.002241
v 0.223820 0.066197 0.112622
v 0.222513 0.061515 0.112622
v 0.218745 0.048019 0.112622
v -0.008098 0.048019 -0.112622
v -0.008156 0.048019 -0.114055
v -0.223820 2.661639 -0.112622
v -0.223820 2.659367 -0.098431
v -0.223820 2.627134 0.102851
v 0.223820 2.654117 -0.112622
v -0.223820 2.628346 0.112622
v 0.223820 2.628831 0.112622
vt 1.000000 1.000000
vt 0.833333 1.000000
vt 0.833333 0.800000
vt 1.000000 0.800000
vt 0.166667 0.800000
vt 0.000000 0.800000
vt 0.000000 0.600000
vt 0.166667 0.600000
vt 0.000000 0.598743
vt 0.166667 0.598743
vt 0.833333 0.600000
vt 1.000000 0.600000
vt 0.833333 0.400000
vt 1.000000 0.400000
vt 1.000000 0.401257
vt 0.999887 0.401257
vt 0.999887 0.598743
vt 1.000000 0.598743
vt 0.375052 0.500000
vt 0.375000 0.500000
vt 0.375000 0.499989
vt 0.375000 0.200000
vt 0.375000 0.400000
vt 0.250000 0.200000
vt 0.625000 0.498983
vt 0.625000 0.500000
vt 0.620024 0.500000
vt 0.375000 0.000000
vt 0.250000 0.400000
vt 0.375000 0.800000
vt 0.250000 0.800000
vt 0.375000 0.600000
vt 0.375000 1.000000
vt 0.250000 0.000000
vt 0.250000 0.600000
vt 0.250000 1.000000
vt 0.875000 0.200000
vt 0.875000 0.000000
vt 1.000000 0.200000
vt 1.000000 0.000000
vt 0.875000 0.400000
vt 1.000000 1.000000
vt 0.875000 1.000000
vt 1.000000 0.800000
vt 0.875000 0.800000
vt 1.000000 0.400000
vt 0.875000 0.600000
vt 1.000000 0.600000
vt 0.565658 0.600000
vt 0.500000 0.600000
vt 0.500000 0.400000
vt 0.565658 0.400000
vt 0.500000 0.200000
vt 0.500000 0.800000
vt 0.500000 0.000000
vt 0.625000 0.200000
vt 0.625000 0.000000
vt 0.500000 1.000000
vt 0.625000 1.000000
vt 0.625000 0.800000
vt 0.750000 0.200000
vt 0.750000 0.000000
vt 0.686726 0.400000
vt 0.750000 0.400000
vt 0.750000 0.600000
vt 0.686726 0.600000
vt 0.750000 1.000000
vt 0.750000 0.800000
vt 0.625000 0.004368
vt 0.625000 0.247896
vt 0.497538 0.240072
vt 0.375000 0.247593
vt 0.375000 0.004368
vt 0.375085 0.004392
vt 0.624915 0.004392
vt 0.370076 0.246115
vt 0.137953 0.246115
vt 0.125011 0.250000
vt 0.125000 0.250000
vt 0.125000 0.004368
vt 0.563892 0.613730
vt 0.625000 0.613730
vt 0.875000 0.004368
vt 0.875000 0.250000
vt 0.873982 0.250000
vt 0.862047 0.246418
vt 0.629924 0.246418
vt 0.688557 0.613730
vt 0.497538 0.507518
vt 0.625000 0.745632
vt 0.624915 0.745608
vt 0.375085 0.745607
vt 0.375000 0.745632
vt 0.625000 0.363884
vt 0.560842 0.363884
vt 0.560820 0.363914
vt 0.691338 0.366721
vt 0.689158 0.363884
vt 0.166667 1.000000
vt 0.000000 1.000000
vt 0.000000 0.401257
vt 0.000000 0.400000
vt 0.166667 0.400000
vt 0.166667 0.401257
vt 0.833333 0.200000
vt 1.000000 0.200000
vt 0.666667 0.800000
vt 0.666667 0.600000
vt 0.000000 0.200000
vt 0.166667 0.200000
vt 0.833333 0.000000
vt 1.000000 0.000000
vt 0.666667 1.000000
vt 0.666667 0.400000
vt 0.000000 0.000000
vt 0.166667 0.000000
vt 0.333333 0.800000
vt 0.333333 0.600000
vt 0.333333 1.000000
vt 0.666667 0.200000
vt 0.666667 0.000000
vt 0.500000 1.000000
vt 0.500000 0.800000
vt 0.333333 0.200000
vt 0.333333 0.000000
vt 0.500000 0.600000
vt 0.333333 0.400000
vt 0.500000 0.200000
vt 0.500000 0.000000
vt 0.500000 0.400000
vt 0.166780 0.598743
vt 0.166780 0.401257
vt 0.166457 0.598743
vt 0.375400 0.004392
vt 0.999965 0.598743
vt 0.624942 0.004385
vt 0.624793 0.745608
vt 0.000082 0.401257
vt 0.375005 0.745631
vt 0.166774 0.401257
vt 0.873931 0.249984
vt 0.691318 0.366866
vt 0.391361 0.745607
vt 0.155808 0.401257
vt 0.375784 0.744116
vt 0.125000 0.005959
vt 0.375000 0.744041
vt 0.251698 0.130114
vt 0.747513 0.130281
vt 0.625000 0.006055
vt 0.624270 0.005627
vt 0.001834 0.598743
vt 0.622166 0.004392
vt 0.495478 0.745607
vt 0.086350 0.401257
vt 0.086372 0.400000
vt 0.125000 0.243469
vt 0.375000 0.506531
vt 0.140751 0.243261
vt 0.364154 0.240313
vt 0.875000 0.242781
vt 0.625000 0.507219
vt 0.375000 0.240424
vt 0.625000 0.240468
vn -0.778234 -0.437051 0.450930
vn -0.778234 -0.437051 0.450930
vn -0.778234 -0.437051 0.450930
vn -0.778234 -0.437051 0.450930
vn 0.000000 0.416107 0.909316
vn 0.000000 0.416107 0.909316
vn 0.000000 0.416107 0.909316
vn 0.000000 0.416107 0.909316
vn 0.000000 1.000000 -0.000003
vn 0.000000 1.000000 -0.000002
vn 0.000000 1.000000 0.000000
vn 0.369108 0.207289 0.905975
vn 0.369108 0.207289 0.905975
vn 0.369108 0.207289 0.905975
vn 0.369108 0.207289 0.905975
vn 0.871913 0.489661 -0.000000
vn 0.871913 0.489661 -0.000000
vn 0.871913 0.489661 -0.000000
vn 0.871913 0.489661 -0.000000
vn 0.871913 0.489661 -0.000000
vn 0.979356 0.202144 -0.000000
vn 0.979326 0.202291 -0.000000
vn 0.871913 0.489661 -0.000000
vn 0.000000 0.000000 0.000000
vn 0.000000 1.000000 0.000000
vn 0.000000 1.000000 0.000000
vn -0.156676 0.175490 -0.971934
vn -0.156676 0.175490 -0.971934
vn -0.156676 0.175490 -0.971934
vn -0.156676 0.175490 -0.971934
vn 0.000000 1.000000 0.000000
vn 0.000000 1.000000 0.000000
vn 0.000000 1.000000 0.000000
vn 0.661566 -0.206856 -0.720792
vn 0.661566 -0.206856 -0.720792
vn 0.661566 -0.206856 -0.720792
vn 0.661566 -0.206856 -0.720792
vn -0.156676 0.175490 0.971934
vn -0.156676 0.175490 0.971934
vn -0.156676 0.175490 0.971934
vn -0.156676 0.175490 0.971934
vn 0.661565 -0.206856 0.720793
vn 0.661565 -0.206855 0.720793
vn 0.661566 -0.206856 0.720793
vn 0.661565 -0.206855 0.720793
vn 0.780437 0.625234 0.000000
vn 0.780437 0.625234 0.000000
vn 0.780437 0.625234 0.000000
vn -0.669314 -0.230100 -0.706451
vn -0.669314 -0.230100 -0.706451
vn -0.669314 -0.230100 -0.706451
vn -0.669314 -0.230100 -0.706451
vn 0.175543 0.159564 -0.971455
vn 0.175543 0.159564 -0.971455
vn 0.175543 0.159564 -0.971455
vn 0.175543 0.159564 -0.971455
vn -0.669314 -0.230100 0.706451
vn -0.669314 -0.230100 0.706451
vn -0.669314 -0.230100 0.706451
vn -0.669314 -0.230100 0.706451
vn -0.780437 0.625234 0.000001
vn -0.780437 0.625234 0.000001
vn -0.780437 0.625234 0.000001
vn 0.175543 0.159564 0.971455
vn 0.175543 0.159564 0.971455
vn 0.175543 0.159564 0.971455
vn 0.175543 0.159564 0.971455
vn -0.350926 -0.936403 0.000000
vn -0.350926 -0.936403 0.000000
vn -0.350926 -0.936403 0.000000
vn -0.350926 -0.936403 0.000000
vn -0.909241 -0.416270 -0.000000
vn -0.909241 -0.416270 -0.000000
vn -0.909241 -0.416270 -0.000000
vn -0.909241 -0.416270 -0.000000
vn -0.239638 -0.109712 -0.964643
vn -0.239638 -0.109712 -0.964643
vn -0.239638 -0.109712 -0.964643
vn -0.239638 -0.109712 -0.964643
vn -0.239639 -0.109712 0.964643
vn -0.239639 -0.109712 0.964643
vn -0.239638 -0.109712 0.964643
vn -0.239639 -0.109712 0.964643
vn 0.688002 0.314982 -0.653789
vn 0.688002 0.314982 -0.653789
vn 0.688002 0.314982 -0.653789
vn 0.688002 0.314982 -0.653789
vn 0.273348 0.729398 -0.627104
vn 0.273348 0.729398 -0.627104
vn 0.273348 0.729398 -0.627104
vn 0.273348 0.729398 -0.627104
vn 0.688002 0.314982 0.653789
vn 0.688002 0.314982 0.653789
vn 0.688002 0.314982 0.653789
vn 0.688002 0.314982 0.653789
vn -0.917190 0.398451 0.000000
vn -0.917189 0.398451 0.000000
vn -0.917189 0.398451 0.000000
vn -0.917190 0.398451 0.000000
vn 0.273348 0.729398 0.627104
vn 0.273348 0.729398 0.627104
vn 0.273348 0.729398 0.627104
vn 0.273348 0.729398 0.627104
vn -0.273348 0.729397 -0.627106
vn -0.273348 0.729397 -0.627106
vn -0.273348 0.729397 -0.627106
vn -0.273348 0.729397 -0.627106
vn 0.350925 -0.936404 0.000000
vn 0.350925 -0.936403 0.000000
vn 0.350925 -0.936403 0.000000
vn 0.350925 -0.936404 0.000000
vn -0.273348 0.729397 0.627105
vn -0.273348 0.729397 0.627105
vn -0.273348 0.729397 0.627105
vn -0.273348 0.729397 0.627105
vn 0.780437 0.625234 -0.000001
vn 0.780437 0.625234 -0.000001
vn 0.780437 0.625234 -0.000001
vn 0.780437 0.625234 -0.000001
vn -0.688002 0.314982 -0.653789
vn -0.688002 0.314982 -0.653789
vn -0.688002 0.314982 -0.653789
vn -0.688002 0.314982 -0.653789
vn 0.239638 -0.109712 -0.964644
vn 0.239638 -0.109712 -0.964644
vn 0.239638 -0.109712 -0.964644
vn 0.239638 -0.109712 -0.964644
vn -0.688002 0.314982 0.653789
vn -0.688001 0.314982 0.653789
vn -0.688002 0.314982 0.653789
vn -0.688002 0.314982 0.653789
vn 0.909241 -0.416270 0.000000
vn 0.909241 -0.416270 0.000000
vn 0.909241 -0.416270 0.000000
vn 0.909241 -0.416270 0.000000
vn 0.239638 -0.109712 0.964643
vn 0.239638 -0.109712 0.964643
vn 0.239638 -0.109712 0.964643
vn 0.239638 -0.109712 0.964643
vn -0.000010 -0.000000 1.000000
vn -0.000000 -0.000000 1.000000
vn -0.000000 -0.000000 1.000000
vn -0.000007 -0.000000 1.000000
vn -0.780437 0.625234 0.000001
vn -0.780437 0.625234 0.000001
vn -0.780437 0.625234 0.000001
vn -0.780437 0.625234 0.000001
vn 0.917189 0.398451 0.000000
vn 0.917189 0.398451 0.000000
vn 0.917189 0.398451 0.000000
vn 0.917190 0.398451 0.000000
vn -1.000000 -0.000000 -0.000000
vn -1.000000 -0.000000 -0.000000
vn -1.000000 -0.000000 0.000000
vn -1.000000 -0.000000 0.000000
vn -1.000000 -0.000000 0.000000
vn -0.092223 -0.246085 0.964851
vn -0.098742 -0.263482 0.959598
vn -0.098742 -0.263482 0.959598
vn -0.098742 -0.263482 0.959598
vn 1.000000 0.000000 0.000000
vn 1.000000 -0.000000 0.000000
vn 1.000000 -0.000000 0.000000
vn 1.000000 -0.000000 0.000000
vn 1.000000 0.000000 0.000000
vn 0.098742 -0.263482 0.959598
vn -0.000000 -0.264776 0.964310
vn 0.000014 -0.005145 0.999987
vn -0.000000 -0.003902 -0.999992
vn 0.000000 -0.000000 -1.000000
vn 0.000000 0.000000 -1.000000
vn -0.073330 -0.195673 -0.977924
vn -0.098742 -0.263482 -0.959597
vn 0.000874 -0.264776 -0.964310
vn 0.098742 -0.263482 -0.959597
vn 0.098742 -0.263482 -0.959598
vn 0.098742 -0.263482 -0.959598
vn 0.098742 -0.263482 -0.959597
vn -0.000000 -0.888712 0.458467
vn -0.000000 -0.888712 0.458467
vn -0.000000 -0.888712 0.458467
vn -0.000000 -0.888712 0.458467
vn 0.000000 1.000000 0.000000
vn 0.000000 1.000000 0.000000
vn 0.000000 1.000000 0.000000
vn 0.000000 1.000000 0.000000
vn 0.369108 0.207289 -0.905975
vn 0.369108 0.207289 -0.905975
vn 0.369108 0.207289 -0.905975
vn 0.369108 0.207289 -0.905975
vn 0.369109 -0.207289 0.905975
vn 0.369109 -0.207289 0.905975
vn 0.369109 -0.207289 0.905975
vn 0.369109 -0.207289 0.905975
vn 0.000000 0.416107 -0.909316
vn 0.000000 0.416107 -0.909316
vn 0.000000 0.416107 -0.909316
vn 0.000000 0.416107 -0.909316
vn 0.000000 0.416107 -0.909316
vn -0.778234 -0.437051 -0.450930
vn -0.778234 -0.437051 -0.450930
vn -0.778234 -0.437051 -0.450930
vn -0.778234 -0.437051 -0.450930
vn -0.778234 0.437052 0.450930
vn -0.778234 0.437051 0.450930
vn -0.778234 0.437051 0.450930
vn -0.778234 0.437052 0.450930
vn 0.871913 -0.489661 0.000000
vn 0.871913 -0.489661 0.000000
vn 0.871913 -0.489661 0.000000
vn 0.871913 -0.489661 0.000000
vn -0.000000 -0.888712 -0.458467
vn -0.000000 -0.888712 -0.458467
vn -0.000000 -0.888712 -0.458467
vn -0.000000 -0.888712 -0.458467
vn -0.369109 0.207289 0.905975
vn -0.369109 0.207289 0.905975
vn -0.369109 0.207289 0.905975
vn -0.369109 0.207289 0.905975
vn 0.778234 -0.437051 0.450930
vn 0.778234 -0.437052 0.450930
vn 0.778234 -0.437052 0.450930
vn 0.778234 -0.437051 0.450930
vn -0.778234 0.437051 -0.450930
vn -0.778234 0.437052 -0.450930
vn -0.778234 0.437052 -0.450930
vn -0.778234 0.437051 -0.450930
vn 0.369108 -0.207289 -0.905975
vn 0.369108 -0.207289 -0.905975
vn 0.369108 -0.207289 -0.905975
vn 0.369108 -0.207289 -0.905975
vn 0.000000 0.888712 0.458467
vn 0.000000 0.888712 0.458466
vn 0.000000 0.888712 0.458466
vn 0.000000 0.888712 0.458466
vn 0.778234 -0.437052 -0.450930
vn 0.778234 -0.437052 -0.450930
vn 0.778234 -0.437052 -0.450930
vn 0.778234 -0.437052 -0.450930
vn 0.778234 0.437051 0.450930
vn 0.778234 0.437051 0.450930
vn 0.778234 0.437051 0.450930
vn 0.778234 0.437051 0.450930
vn -0.000000 -0.416107 0.909316
vn -0.000000 -0.416107 0.909316
vn -0.000000 -0.416107 0.909316
vn -0.000000 -0.416107 0.909316
vn -0.369108 0.207289 -0.905975
vn -0.369108 0.207289 -0.905975
vn -0.369108 0.207289 -0.905975
vn -0.369108 0.207289 -0.905975
vn -0.369109 -0.207289 0.905975
vn -0.369109 -0.207289 0.905975
vn -0.369109 -0.207289 0.905975
vn -0.369109 -0.207289 0.905975
vn 0.000000 0.888712 -0.458467
vn 0.000000 0.888712 -0.458467
vn 0.000000 0.888712 -0.458467
vn 0.000000 0.888712 -0.458467
vn 0.778234 0.437051 -0.450930
vn 0.778234 0.437051 -0.450930
vn 0.778234 0.437051 -0.450930
vn 0.778234 0.437051 -0.450930
vn -0.000000 -1.000000 0.000000
vn -0.000000 -1.000000 0.000000
vn -0.000000 -1.000000 0.000000
vn -0.000000 -1.000000 0.000000
vn -0.000000 -0.416107 -0.909316
vn -0.000000 -0.416107 -0.909316
vn -0.000000 -0.416107 -0.909316
vn -0.000000 -0.416107 -0.909316
vn -0.871913 -0.489661 0.000000
vn -0.871913 -0.489661 0.000000
vn -0.871913 -0.489661 0.000000
vn -0.871913 -0.489661 0.000000
vn -0.369108 -0.207289 -0.905975
vn -0.369108 -0.207289 -0.905975
vn -0.369108 -0.207289 -0.905975
vn -0.369108 -0.207289 -0.905975
vn -0.871913 0.489661 0.000000
vn -0.871913 0.489661 0.000000
vn -0.871913 0.489661 0.000000
vn -0.979236 0.202724 -0.000000
vn -0.979288 0.202474 0.000000
vn -0.871913 0.489661 0.000000
vn -0.871913 0.489661 0.000000
vn -0.871913 0.489661 0.000000
vn 0.000000 1.000000 -0.000003
vn 0.000000 1.000000 -0.000003
vn 0.000000 1.000000 0.000000
vn -0.000000 -0.000000 1.000000
vn 0.000002 0.000001 1.000000
vn 0.871956 0.489585 0.000000
vn 0.091700 -0.244692 0.965255
vn 0.098742 -0.263481 0.959598
vn 0.098742 -0.263481 0.959598
vn 0.000000 1.000000 0.000000
vn 0.000000 1.000000 0.000000
vn 0.000000 1.000000 0.000000
vn -0.871954 0.489588 0.000000
vn 1.000000 -0.000035 0.000000
vn 0.098743 -0.263482 -0.959597
vn 0.078164 -0.208571 -0.974879
vn -0.098742 -0.263482 -0.959598
vn -0.098742 -0.263482 -0.959598
vn -0.098742 -0.263482 -0.959598
vn -1.000000 0.000000 0.000000
vn -1.000000 0.000000 0.000000
vn -1.000000 0.000000 0.000000
vn -1.000000 0.000000 0.000000
vn 0.000000 1.000000 0.000000
vn -0.000000 -0.000000 -1.000000
vn -0.000000 -0.000000 -1.000000
vn 0.000000 -0.000000 -1.000000
vn 0.000019 0.000000 -1.000000
vn -1.000000 0.000000 -0.000000
vn -1.000000 0.000000 -0.000000
vn 1.000000 0.000000 0.000000
vn 1.000000 0.000000 0.000000
vn 1.000000 0.000000 0.000000
vn 1.000000 0.000000 0.000000
vn -0.000000 -0.000000 1.000000
vn -0.000000 -0.000000 -1.000000
vn -0.000000 -0.000000 -1.000000
vn -0.000000 -0.000000 -1.000000
vn -0.000000 -0.000000 -1.000000
vn -0.000000 -0.000000 -1.000000
vn -0.000000 -0.000000 -1.000000
vn -0.000000 -0.000000 -1.000000
vn 0.000000 0.000000 -1.000000
vn -0.000000 -0.000000 1.000000
vn -0.000000 -0.000000 1.000000
vn -0.000000 -0.000000 1.000000
vn -0.000000 -0.000000 1.000000
s off
g pTorus4
usemtl initialShadingGroup
f 1/1/1 2/2/2 3/3/3 4/4/4
f 5/5/5 4/6/6 6/7/7 7/8/8
s 1
f 98/152/9 6/7/10 8/9/11
s off
f 4/4/12 3/3/13 10/11/14 6/12/15
s 2
f 6/12/16 10/11/17 11/13/18 12/14/19 13/15/20 14/16/21 15/17/22 87/135/23
s off
f 16/19/24 17/20/25 18/21/26
f 21/24/27 19/22/28 20/23/29 26/29/30
f 22/25/31 23/26/32 24/27/33
f 25/28/34 19/22/35 21/24/36 30/34/37
f 29/32/38 27/30/39 28/31/40 31/35/41
f 28/31/42 27/30/43 25/33/44 30/36/45
f 28/31/46 30/34/47 21/24/48
f 34/39/49 32/37/50 33/38/51 35/40/52
f 36/41/53 32/37/54 34/39/55 39/46/56
f 37/44/57 35/42/58 33/43/59 38/45/60
f 37/44/61 34/39/62 35/42/63
f 37/44/64 38/45/65 40/47/66 41/48/67
f 42/49/68 43/50/69 44/51/70 45/52/71
f 43/50/72 29/32/73 20/23/74 44/51/75
f 44/51/76 20/23/77 19/22/78 46/53/79
f 47/54/80 27/30/81 29/32/82 43/50/83
f 46/53/84 19/22/85 25/28/86 48/55/87
f 49/56/88 46/53/89 48/55/90 50/57/91
f 48/58/92 25/33/93 27/30/94 47/54/95
f 29/32/96 31/35/97 26/29/98 20/23/99
f 50/59/100 48/58/101 47/54/102 51/60/103
f 52/61/104 49/56/105 50/57/106 53/62/107
f 54/63/108 55/64/109 56/65/110 57/66/111
f 53/67/112 50/59/113 51/60/114 58/68/115
f 31/35/116 28/31/117 21/24/118 26/29/119
f 32/37/120 52/61/121 53/62/122 33/38/123
f 36/41/124 55/64/125 52/61/126 32/37/127
f 33/43/128 53/67/129 58/68/130 38/45/131
f 40/47/132 56/65/133 55/64/134 36/41/135
f 38/45/136 58/68/137 56/65/138 40/47/139
s 3
f 15/69/140 96/150/141 97/151/142 87/136/143
s off
f 37/44/144 41/48/145 39/46/146 34/39/147
f 41/48/148 40/47/149 36/41/150 39/46/151
s 4
f 103/160/152 42/76/153 45/77/154 102/159/155 94/148/156
s 3
f 61/81/157 47/54/158 43/50/159 42/49/160
s 2
f 14/83/21 104/161/161 23/84/162 90/141/163 54/86/164 95/149/165
s 3
f 58/68/166 51/60/167 60/82/168
s 8
f 64/89/169 101/158/170 17/20/171 16/19/172
f 18/96/173 49/56/174 64/94/169 16/95/172
f 55/64/175 54/63/176 90/142/177 52/61/178
s off
f 66/99/179 1/100/180 4/6/181 5/5/182
s 10
f 99/155/183 100/156/184 67/103/185 91/144/186
s off
f 12/14/187 11/13/188 68/105/189 69/106/190
f 3/3/191 70/107/192 71/108/193 10/11/194
f 67/103/195 100/156/196 12/102/197 69/109/198 72/110/199
f 69/106/200 68/105/201 2/111/202 1/112/203
f 2/2/204 73/113/205 70/107/206 3/3/207
f 10/11/208 71/108/209 74/114/210 11/13/211
f 72/110/212 69/109/213 1/115/214 66/116/215
f 75/117/216 5/5/217 7/8/218 76/118/219
f 77/119/220 66/99/221 5/5/222 75/117/223
f 68/105/224 78/120/225 73/121/226 2/111/227
f 11/13/228 74/114/229 78/120/230 68/105/231
f 73/113/232 79/122/233 80/123/234 70/107/235
f 81/124/236 72/110/237 66/116/238 77/125/239
f 79/122/240 77/119/241 75/117/242 80/123/243
f 70/107/244 80/123/245 82/126/246 71/108/247
f 83/127/248 67/103/249 72/110/250 81/124/251
f 80/123/252 75/117/253 76/118/254 82/126/255
f 78/120/256 84/128/257 79/129/258 73/121/259
f 84/128/260 81/124/261 77/125/262 79/129/263
f 71/108/264 82/126/265 85/130/266 74/114/267
f 74/114/268 85/130/269 84/128/270 78/120/271
f 82/126/272 76/118/273 83/127/274 85/130/275
f 85/130/276 83/127/277 81/124/278 84/128/279
s 4
f 76/118/280 7/8/281 9/10/282 62/131/283 63/132/284 89/140/285 67/103/286 83/127/287
s 1
f 7/8/288 86/133/289 9/10/290
s 3
f 87/136/143 97/151/142 98/153/291 8/75/292
s 2
f 6/12/16 87/135/23 8/18/293
s 3
f 60/82/168 47/54/158 61/81/157
f 58/68/166 59/88/294 57/66/295 56/65/296
s 10
f 13/101/297 12/102/298 88/138/299
s 4
f 67/103/286 89/140/285 65/104/300
s 2
f 90/141/163 23/84/162 22/85/301
s 8
f 52/61/178 90/142/177 22/97/302 24/98/303 49/56/174
f 45/52/304 44/51/305 46/53/306 18/96/173
f 49/56/174 24/98/303 64/94/169
f 18/96/173 46/53/306 49/56/174
s 4
f 102/159/155 45/77/154 18/78/307 17/79/308 101/157/309 93/146/310 94/148/156
s 10
f 91/144/186 67/103/185 65/104/311
s 8
f 93/147/312 92/145/313 89/139/314 63/93/315
s 4
f 62/73/283 94/148/156 93/146/310 63/80/284
f 62/73/283 105/163/316 61/72/317 42/76/153 103/160/152 94/148/156
s 2
f 14/83/21 95/149/165 96/150/318 15/69/22
f 95/149/165 54/86/164 57/87/319
f 96/150/318 95/149/165 57/87/319 59/70/320 106/164/321
s 3
f 60/71/168 106/164/322 59/70/294
s 1
f 7/8/288 6/7/10 98/152/9 86/133/289
s 3
f 51/60/167 47/54/158 60/82/168
f 58/68/166 60/82/168 59/88/294
s 10
f 88/138/299 12/102/298 100/156/184 99/155/183
s 8
f 99/154/323 91/143/324 65/92/325 89/139/314 92/145/313 93/147/312 101/158/170 64/89/169 104/162/326 14/90/327 13/91/328 88/137/329
f 104/162/326 64/89/169 24/27/303 23/26/330
s 3
f 105/163/331 60/71/168 61/72/157
f 97/151/142 96/150/141 106/164/322 60/71/168 105/163/331 62/73/332 9/74/333 86/134/334 98/153/291
