# This file uses centimeters as units for non-parametric coordinates.

mtllib Otvertka.mtl
g default
v 0.208131 -0.000001 -0.360494
v -0.208131 -0.000001 -0.360494
v -0.416262 -0.000001 -0.000000
v -0.208131 -0.000001 0.360494
v 0.208131 -0.000001 0.360494
v 0.416262 -0.000001 0.000000
v 0.152110 5.973384 -0.033612
v -0.152110 5.973384 -0.033612
v -0.152110 5.973384 0.033612
v 0.152110 5.973384 0.033612
v 0.000000 -0.000001 0.000000
v 0.000000 5.973384 0.000000
v 0.208131 1.705465 -0.360494
v -0.208131 1.705465 -0.360494
v -0.416262 1.705465 -0.000000
v -0.208131 1.705465 0.360494
v 0.208131 1.705465 0.360494
v 0.416262 1.705465 0.000000
v 0.208131 2.183800 -0.360494
v 0.416262 2.183800 0.000000
v 0.208131 2.183800 0.360494
v -0.208131 2.183800 0.360494
v -0.416262 2.183800 -0.000000
v -0.208131 2.183800 -0.360494
v 0.208131 2.358962 -0.360493
v 0.416262 2.358962 0.000000
v 0.208131 2.358962 0.360494
v -0.208131 2.358962 0.360494
v -0.416262 2.358962 -0.000000
v -0.208131 2.358962 -0.360494
v 0.152110 5.390356 -0.162833
v 0.152111 5.390356 0.162833
v -0.152110 5.390356 0.162833
v -0.152110 5.390356 -0.162833
v 0.145949 1.705465 -0.252791
v -0.145949 1.705465 -0.252791
v -0.145949 2.183800 -0.252791
v 0.145949 2.183800 -0.252791
v -0.291898 1.705465 -0.000000
v -0.291898 2.183800 -0.000000
v -0.145949 1.705465 0.252791
v -0.145949 2.183800 0.252791
v 0.145949 1.705465 0.252791
v 0.145949 2.183800 0.252791
v 0.291898 1.705465 -0.000000
v 0.291898 2.183800 -0.000000
v 0.344237 2.183800 -0.596236
v 0.688474 2.183800 -0.000000
v 0.344237 2.358962 -0.596236
v 0.688474 2.358962 -0.000000
v 0.344237 2.183800 0.596236
v 0.344237 2.358962 0.596236
v -0.344237 2.183800 0.596236
v -0.344237 2.358962 0.596236
v -0.688474 2.183800 -0.000000
v -0.688474 2.358962 -0.000000
v -0.344237 2.183800 -0.596236
v -0.344237 2.358962 -0.596236
v 0.089081 2.358962 -0.154292
v 0.178161 2.358962 -0.000000
v 0.089081 5.390356 -0.154292
v 0.178161 5.390356 0.000000
v 0.089081 2.358962 0.154292
v 0.089081 5.390356 0.154292
v -0.089081 2.358962 0.154292
v -0.089081 5.390356 0.154292
v -0.178161 2.358962 -0.000000
v -0.178161 5.390356 -0.000000
v -0.089081 2.358962 -0.154292
v -0.089081 5.390356 -0.154292
v 0.059419 2.358962 -0.102916
v 0.118838 2.358962 -0.000000
v 0.059419 5.390356 -0.102916
v 0.118837 5.390356 -0.000000
v 0.059419 2.358962 0.102916
v 0.059419 5.390356 0.102916
v -0.059419 2.358962 0.102916
v -0.059419 5.390356 0.102916
v -0.118838 2.358962 -0.000000
v -0.118837 5.390356 -0.000000
v -0.059419 2.358962 -0.102916
v -0.059419 5.390356 -0.102916
v 0.218404 5.973384 0.000000
v 0.304221 5.390356 0.000000
v -0.218404 5.973384 -0.000000
v -0.304221 5.390356 -0.000000
vt 0.628350 0.239426
vt 0.033399 0.239426
vt 0.033399 0.283935
vt 0.628350 0.283935
vt 0.152389 0.239426
vt 0.152389 0.283935
vt 0.271380 0.239426
vt 0.271380 0.283935
vt 0.390370 0.239426
vt 0.390370 0.283935
vt 0.509360 0.239426
vt 0.509360 0.283935
vt 0.033399 0.080733
vt 0.330863 0.080733
vt 0.152389 0.080733
vt 0.271380 0.080733
vt 0.390370 0.080733
vt 0.509360 0.080733
vt 0.534072 0.750330
vt 0.127678 0.750330
vt 0.330863 0.750330
vt 0.152389 0.750330
vt 0.177101 0.750330
vt 0.484649 0.750330
vt 0.509360 0.750330
vt 0.033399 0.239426
vt 0.628350 0.239426
vt 0.152389 0.239426
vt 0.271380 0.239426
vt 0.390370 0.239426
vt 0.509360 0.239426
vt 0.509360 0.283935
vt 0.509360 0.300234
vt 0.390370 0.283935
vt 0.390370 0.300234
vt 0.271380 0.283935
vt 0.271380 0.300234
vt 0.152389 0.283935
vt 0.152389 0.300234
vt 0.033399 0.283935
vt 0.033399 0.300234
vt 0.506389 0.414008
vt 0.506389 0.696079
vt 0.387398 0.414008
vt 0.387398 0.696079
vt 0.268408 0.414008
vt 0.268408 0.696079
vt 0.149418 0.414008
vt 0.149418 0.696079
vt 0.030428 0.414008
vt 0.030428 0.696079
vt 0.509360 0.696079
vt 0.416251 0.696079
vt 0.245499 0.696079
vt 0.152389 0.696079
vt 0.059280 0.696079
vt 0.033399 0.283935
vt 0.628350 0.283935
vt 0.152389 0.283935
vt 0.271380 0.283935
vt 0.390370 0.283935
vt 0.509360 0.283935
vt 0.628350 0.300234
vt 0.509360 0.300234
vt 0.390370 0.300234
vt 0.271380 0.300234
vt 0.152389 0.300234
vt 0.033399 0.300234
vt 0.628350 0.300234
vt 0.509360 0.300234
vt 0.509360 0.696079
vt 0.390370 0.300234
vt 0.271380 0.300234
vt 0.271380 0.696079
vt 0.390370 0.696079
vt 0.152389 0.300234
vt 0.152389 0.696079
vt 0.033399 0.300234
vt 0.033399 0.696079
vt 0.747341 0.239426
vt 0.628350 0.080733
vt 0.841620 0.750330
vt 0.747341 0.080733
vt 0.628350 0.283935
vt 0.747341 0.300234
vt 0.625379 0.300234
vt 0.744370 0.696079
vt 0.773221 0.696079
vt 0.747341 0.239426
vt 0.747341 0.283935
vt 0.747341 0.283935
vt 0.747341 0.283935
vt 0.628350 0.300234
vt 0.747341 0.300234
vt 0.602470 0.696079
vt 0.747341 0.696079
vt 0.747341 0.300234
vt 0.744369 0.414008
vt 0.628350 0.696079
vt 0.625379 0.696079
vt 0.030428 0.300234
vt 0.744369 0.300234
vt 0.625379 0.414008
vt 0.149418 0.300234
vt 0.268408 0.300234
vt 0.387398 0.300234
vt 0.506389 0.300234
vn 0.000000 0.000000 -1.000000
vn 0.000000 0.000000 -1.000000
vn 0.000000 0.000000 -1.000000
vn 0.000000 0.000000 -1.000000
vn -0.866025 0.000000 -0.500000
vn -0.866025 0.000000 -0.500000
vn -0.866025 0.000000 -0.500000
vn -0.866025 0.000000 -0.500000
vn -0.866025 0.000000 0.500000
vn -0.866025 0.000000 0.500000
vn -0.866025 0.000000 0.500000
vn -0.866025 0.000000 0.500000
vn 0.000000 0.000000 1.000000
vn 0.000000 0.000000 1.000000
vn 0.000000 0.000000 1.000000
vn 0.000000 0.000000 1.000000
vn 0.866025 0.000000 0.500000
vn 0.866025 0.000000 0.500000
vn 0.866025 0.000000 0.500000
vn 0.866025 0.000000 0.500000
vn 0.866025 0.000000 -0.500000
vn 0.866025 0.000000 -0.500000
vn 0.866025 0.000000 -0.500000
vn 0.866025 0.000000 -0.500000
vn 0.000000 -1.000000 0.000000
vn 0.000000 -1.000000 0.000000
vn 0.000000 -1.000000 0.000000
vn 0.000000 -1.000000 0.000000
vn 0.000000 -1.000000 0.000000
vn 0.000000 -1.000000 0.000000
vn 0.000000 -1.000000 0.000000
vn 0.000000 1.000000 0.000000
vn 0.000000 1.000000 0.000000
vn 0.000000 1.000000 0.000000
vn 0.000000 1.000000 0.000000
vn 0.000000 1.000000 0.000000
vn 0.000000 1.000000 0.000000
vn 0.000000 1.000000 0.000000
vn 0.000000 0.000000 -1.000000
vn 0.000000 0.000000 -1.000000
vn 0.000000 0.000000 -1.000000
vn 0.000000 0.000000 -1.000000
vn -0.866025 0.000000 -0.500000
vn -0.866025 0.000000 -0.500000
vn -0.866025 0.000000 -0.500000
vn -0.866025 0.000000 -0.500000
vn -0.866025 0.000000 0.500000
vn -0.866025 0.000000 0.500000
vn -0.866025 0.000000 0.500000
vn -0.866025 0.000000 0.500000
vn 0.000000 0.000000 1.000000
vn 0.000000 0.000000 1.000000
vn 0.000000 0.000000 1.000000
vn 0.000000 0.000000 1.000000
vn 0.866025 0.000000 0.500000
vn 0.866025 0.000000 0.500000
vn 0.866025 0.000000 0.500000
vn 0.866025 0.000000 0.500000
vn 0.866026 0.000000 -0.500000
vn 0.866026 0.000000 -0.500000
vn 0.866026 0.000000 -0.500000
vn 0.866026 0.000000 -0.500000
vn 0.866025 0.000000 -0.500000
vn 0.866025 0.000000 -0.500000
vn 0.866025 0.000000 -0.500000
vn 0.866025 0.000000 -0.500000
vn 0.866025 0.000000 0.500000
vn 0.866025 0.000000 0.500000
vn 0.866025 0.000000 0.500000
vn 0.866025 0.000000 0.500000
vn -0.000000 0.000000 1.000000
vn -0.000000 0.000000 1.000000
vn -0.000000 0.000000 1.000000
vn -0.000000 0.000000 1.000000
vn -0.866025 0.000000 0.500000
vn -0.866025 0.000000 0.500000
vn -0.866025 0.000000 0.500000
vn -0.866025 0.000000 0.500000
vn -0.866025 0.000000 -0.500000
vn -0.866025 0.000000 -0.500000
vn -0.866025 0.000000 -0.500000
vn -0.866025 0.000000 -0.500000
vn 0.000000 0.000000 -1.000000
vn 0.000000 0.000000 -1.000000
vn 0.000000 0.000000 -1.000000
vn 0.000000 0.000000 -1.000000
vn 0.866025 -0.000000 -0.500000
vn 0.866025 -0.000000 -0.500000
vn 0.866025 -0.000000 -0.500000
vn 0.866025 -0.000000 -0.500000
vn 0.866025 0.000000 0.500001
vn 0.866025 0.000000 0.500001
vn 0.866025 0.000000 0.500001
vn 0.866025 0.000000 0.500001
vn 0.000000 -0.000000 1.000000
vn 0.000000 -0.000000 1.000000
vn 0.000000 -0.000000 1.000000
vn 0.000000 -0.000000 1.000000
vn -0.866025 0.000000 0.500000
vn -0.866025 0.000000 0.500000
vn -0.866025 0.000000 0.500000
vn -0.866025 0.000000 0.500000
vn -0.866026 -0.000000 -0.499999
vn -0.866026 -0.000000 -0.499999
vn -0.866026 -0.000000 -0.499999
vn -0.866026 -0.000000 -0.499999
vn 0.000001 -0.000000 -1.000000
vn 0.000001 -0.000000 -1.000000
vn 0.000001 -0.000000 -1.000000
vn 0.000001 -0.000000 -1.000000
vn 0.663024 0.130484 -0.737139
vn 0.663024 0.130484 -0.737139
vn 0.663024 0.130484 -0.737139
vn 0.663024 0.130484 -0.737139
vn 0.663025 0.130485 0.737137
vn 0.663025 0.130485 0.737137
vn 0.663025 0.130485 0.737137
vn 0.663025 0.130485 0.737137
vn -0.000000 0.216386 0.976308
vn -0.000000 0.216386 0.976308
vn -0.000000 0.216386 0.976308
vn -0.000000 0.216386 0.976308
vn -0.663023 0.130484 0.737139
vn -0.663024 0.130484 0.737139
vn -0.663024 0.130484 0.737139
vn -0.663024 0.130484 0.737139
vn -0.663024 0.130484 -0.737138
vn -0.663024 0.130484 -0.737138
vn -0.663024 0.130484 -0.737138
vn -0.663024 0.130484 -0.737138
vn 0.000000 0.216386 -0.976308
vn 0.000000 0.216386 -0.976308
vn 0.000000 0.216386 -0.976308
vn 0.000000 0.216386 -0.976308
vn 0.000000 1.000000 -0.000000
vn 0.000000 1.000000 -0.000000
vn 0.000000 1.000000 -0.000000
vn 0.000000 1.000000 -0.000000
vn 0.000000 -1.000000 -0.000000
vn 0.000000 -1.000000 -0.000000
vn 0.000000 -1.000000 0.000000
vn 0.000000 -1.000000 0.000000
vn 0.000000 1.000000 0.000000
vn 0.000000 1.000000 0.000000
vn 0.000000 -1.000000 0.000000
vn 0.000000 -1.000000 0.000000
vn 0.000000 1.000000 -0.000000
vn 0.000000 1.000000 -0.000000
vn 0.000000 -1.000000 -0.000000
vn 0.000000 -1.000000 -0.000000
vn 0.000000 1.000000 -0.000000
vn 0.000000 1.000000 -0.000000
vn 0.000000 -1.000000 -0.000000
vn 0.000000 -1.000000 -0.000000
vn 0.000000 1.000000 0.000000
vn 0.000000 1.000000 0.000000
vn 0.000000 -1.000000 0.000000
vn 0.000000 -1.000000 0.000000
vn 0.000000 -1.000000 -0.000000
vn 0.000000 -1.000000 0.000000
vn 0.000000 1.000000 0.000000
vn 0.000000 1.000000 -0.000000
vn 0.000000 1.000000 0.000000
vn 0.000000 1.000000 0.000000
vn 0.000000 -1.000000 0.000000
vn 0.000000 1.000000 0.000000
vn 0.000000 1.000000 0.000000
vn 0.000000 -1.000000 0.000000
vn 0.000000 1.000000 0.000000
vn 0.000000 1.000000 0.000000
vn 0.000000 -1.000000 0.000000
vn 0.000000 1.000000 0.000000
vn 0.000000 1.000000 0.000000
vn 0.000000 -1.000000 -0.000000
vn 0.000000 1.000000 0.000000
vn 0.000000 1.000000 0.000000
vn 0.000000 1.000000 0.000000
vn 0.000000 1.000000 -0.000000
vn 0.000000 -1.000000 -0.000001
vn 0.000000 -1.000000 0.000000
vn 0.000000 -1.000000 0.000000
vn 0.000000 -1.000000 0.000002
vn 0.000000 1.000000 -0.000000
vn 0.000000 1.000000 -0.000000
vn 0.000000 -1.000000 0.000001
vn 0.000000 -1.000000 -0.000001
vn 0.000000 -1.000000 0.000000
vn 0.000000 -1.000000 0.000001
vn 0.000000 1.000000 -0.000000
vn 0.000000 -1.000000 -0.000000
vn 0.000000 -1.000000 -0.000000
vn 0.000000 1.000000 0.000000
vn 0.000000 -1.000000 0.000000
vn 0.000000 -1.000000 0.000001
vn 0.000000 1.000000 0.000000
vn 0.000000 1.000000 -0.000000
vn 0.000000 -1.000000 -0.000000
vn 0.000000 -1.000000 0.000001
vn 0.000000 1.000000 0.000000
vn 0.000000 -1.000000 0.000001
vn 0.000000 1.000000 0.000000
vn 0.000000 -1.000000 0.000002
vn 0.000000 1.000000 0.000000
vn 0.000000 -1.000000 -0.000001
vn 0.000000 1.000000 0.000000
vn 0.000000 -1.000000 -0.000001
s off
g pCylinder1
usemtl initialShadingGroup
f 35/1/1 36/80/2 37/90/3 38/4/4
f 36/2/5 39/5/6 40/6/7 37/3/8
f 39/5/9 41/7/10 42/8/11 40/6/12
f 41/7/13 43/9/14 44/10/15 42/8/16
f 43/9/17 45/11/18 46/12/19 44/10/20
f 45/11/21 35/1/22 38/4/23 46/12/24
s 1
f 2/83/25 1/81/26 11/14/27
f 3/15/28 2/13/25 11/14/27
f 4/16/29 3/15/28 11/14/27
f 5/17/30 4/16/29 11/14/27
f 6/18/31 5/17/30 11/14/27
f 1/81/26 6/18/31 11/14/27
s 2
f 7/19/32 8/82/33 12/21/34
f 8/20/33 85/22/35 12/21/34
f 9/23/36 10/24/37 12/21/34
f 10/24/37 83/25/38 12/21/34
s off
f 1/81/39 2/83/40 14/89/41 13/27/42
f 2/13/43 3/15/44 15/28/45 14/26/46
f 3/15/47 4/16/48 16/29/49 15/28/50
f 4/16/51 5/17/52 17/30/53 16/29/54
f 5/17/55 6/18/56 18/31/57 17/30/58
f 6/18/59 1/81/60 13/27/61 18/31/62
f 48/32/63 47/84/64 49/93/65 50/33/66
f 51/34/67 48/32/68 50/33/69 52/35/70
f 53/36/71 51/34/72 52/35/73 54/37/74
f 55/38/75 53/36/76 54/37/77 56/39/78
f 57/40/79 55/38/80 56/39/81 58/41/82
f 47/84/83 57/92/84 58/85/85 49/93/86
f 72/42/87 71/103/88 73/100/89 74/43/90
f 75/44/91 72/42/92 74/43/93 76/45/94
f 77/46/95 75/44/96 76/45/97 78/47/98
f 79/48/99 77/46/100 78/47/101 80/49/102
f 81/50/103 79/48/104 80/49/105 82/51/106
f 71/103/107 81/98/108 82/87/109 73/100/110
f 83/25/111 84/52/112 31/95/113 7/19/114
f 32/53/115 84/52/116 83/25/117 10/24/118
f 33/54/119 32/53/120 10/24/121 9/23/122
f 85/22/123 86/55/124 33/54/125 9/23/126
f 34/56/127 86/55/128 85/22/129 8/20/130
f 31/95/131 34/88/132 8/82/133 7/19/134
s 4
f 13/27/135 14/89/136 36/80/137 35/1/138
s 5
f 24/91/139 19/58/140 38/4/141 37/90/142
s 4
f 14/26/136 15/28/143 39/5/144 36/2/137
s 5
f 23/59/145 24/57/139 37/3/142 40/6/146
s 4
f 15/28/143 16/29/147 41/7/148 39/5/144
s 5
f 22/60/149 23/59/145 40/6/146 42/8/150
s 4
f 16/29/147 17/30/151 43/9/152 41/7/148
s 5
f 21/61/153 22/60/149 42/8/150 44/10/154
s 4
f 17/30/151 18/31/155 45/11/156 43/9/152
s 5
f 20/62/157 21/61/153 44/10/154 46/12/158
s 4
f 18/31/155 13/27/135 35/1/138 45/11/156
s 5
f 19/58/140 20/62/157 46/12/158 38/4/141
f 20/62/157 19/58/140 47/84/159 48/32/160
s 6
f 25/63/161 26/64/162 50/33/163 49/93/164
s 5
f 21/61/153 20/62/157 48/32/160 51/34/165
s 6
f 26/64/162 27/65/166 52/35/167 50/33/163
s 5
f 22/60/149 21/61/153 51/34/165 53/36/168
s 6
f 27/65/166 28/66/169 54/37/170 52/35/167
s 5
f 23/59/145 22/60/149 53/36/168 55/38/171
s 6
f 28/66/169 29/67/172 56/39/173 54/37/170
s 5
f 24/57/139 23/59/145 55/38/171 57/40/174
s 6
f 29/67/172 30/68/175 58/41/176 56/39/173
s 5
f 19/58/140 24/91/139 57/92/174 47/84/159
s 6
f 30/94/175 25/63/161 49/93/164 58/85/176
f 26/64/162 25/63/161 59/69/177 60/70/178
s 7
f 31/95/179 84/52/180 62/71/181 61/99/182
s 6
f 27/65/166 26/64/162 60/70/178 63/72/183
f 28/66/169 27/65/166 63/72/183 65/73/184
s 7
f 32/53/185 33/54/186 66/74/187 64/75/188
s 6
f 29/67/172 28/66/169 65/73/184 67/76/189
s 7
f 33/54/186 86/55/190 68/77/191 66/74/187
s 6
f 30/68/175 29/67/172 67/76/189 69/78/192
f 25/63/161 30/94/175 69/97/192 59/69/177
s 7
f 34/88/193 31/95/179 61/99/182 70/96/194
s 6
f 60/70/178 59/69/177 71/86/195 72/107/196
s 7
f 61/99/182 62/71/181 74/43/197 73/100/198
s 6
f 63/72/183 60/70/178 72/107/196 75/106/199
s 7
f 62/71/181 64/75/188 76/45/200 74/43/197
s 6
f 65/73/184 63/72/183 75/106/199 77/105/201
s 7
f 64/75/188 66/74/187 78/47/202 76/45/200
s 6
f 67/76/189 65/73/184 77/105/201 79/104/203
s 7
f 66/74/187 68/77/191 80/49/204 78/47/202
s 6
f 69/78/192 67/76/189 79/104/203 81/101/205
s 7
f 68/77/191 70/79/194 82/51/206 80/49/204
s 6
f 59/69/177 69/97/192 81/102/205 71/86/195
s 7
f 70/96/194 61/99/182 73/100/198 82/87/206
s 2
f 83/25/38 7/19/32 12/21/34
s 7
f 84/52/180 32/53/185 64/75/188 62/71/181
s 2
f 85/22/35 9/23/36 12/21/34
s 7
f 86/55/190 34/56/193 70/79/194 68/77/191
