# File produced by Open Asset Import Library (http://www.assimp.sf.net)
# (assimp v3.1.202510665)

mtllib PowerBox.mtl

# vertex positions
v -0.655382 0.343802 -1.093910
v 0.655382 0.343802 -1.093910
v 0.655382 0.343802 1.093910
v -0.655382 0.343802 1.093910
v -0.655382 3.656198 -1.093910
v 0.655382 3.656198 -1.093910
v 0.788220 1.652677 -0.884831
v 0.788220 1.759205 -0.919444
v 0.819179 1.729762 -0.828825
v 0.788220 1.652677 -0.772820
v 0.788220 1.825043 -0.828825
v 0.788220 1.759205 -0.738207
v -0.655382 3.656198 1.093910
v 0.655382 1.777403 -0.975449
v 0.707168 1.777403 -0.975449
v 0.707168 1.605036 -0.919444
v 0.655382 1.605036 -0.919444
v 0.707168 1.605036 -0.738207
v 0.655382 1.605036 -0.738207
v 0.655382 1.883931 -0.828825
v 0.707168 1.883931 -0.828825
v 0.707168 1.777403 -0.682202
v 0.655382 1.777403 -0.682202
v 0.655382 3.656198 1.093910
v 0.655382 3.035625 -0.500000
v 0.655382 3.093382 -0.500000
v 0.565787 3.038919 -0.500000
v 0.565787 2.981162 -0.500000
v 0.655382 3.134069 -0.500000
v 0.655382 3.191826 -0.500000
v 0.565787 3.137363 -0.500000
v 0.565787 3.079606 -0.500000
v 0.655382 3.239136 -0.500000
v 0.655382 3.296893 -0.500000
v 0.565787 3.242429 -0.500000
v 0.565787 3.184673 -0.500000
v 0.655382 3.337580 -0.500000
v 0.655382 3.395337 -0.500000
v 0.565787 3.340873 -0.500000
v 0.565787 3.283117 -0.500000
v 0.565787 3.038919 0.500000
v 0.565787 2.981162 0.500000
v 0.655382 3.035625 0.500000
v 0.565787 3.137363 0.500000
v 0.565787 3.079606 0.500000
v 0.655382 3.093382 0.500000
v 0.655382 3.134069 0.500000
v 0.655382 3.191826 0.500000
v 0.565787 3.242429 0.500000
v 0.565787 3.184673 0.500000
v 0.655382 3.239136 0.500000
v 0.565787 3.340873 0.500000
v 0.565787 3.283117 0.500000
v 0.655382 3.296893 0.500000
v 0.655382 3.337580 0.500000
v 0.655382 3.395337 0.500000

# UV coordinates
vt 0.160505 0.431607
vt 0.329135 0.431607
vt 0.329135 0.713070
vt 0.160505 0.713070
vt 0.001734 0.001992
vt 0.170364 0.001992
vt 0.170364 0.428133
vt 0.001734 0.428133
vt 0.237035 0.728202
vt 0.250740 0.723749
vt 0.246952 0.735408
vt 0.237035 0.742613
vt 0.259210 0.735408
vt 0.250740 0.747066
vt 0.176624 0.001992
vt 0.458088 0.001992
vt 0.458088 0.428133
vt 0.176624 0.428133
vt 0.273314 0.730249
vt 0.279976 0.730249
vt 0.279976 0.752424
vt 0.273314 0.752424
vt 0.300455 0.716544
vt 0.307117 0.716544
vt 0.307117 0.739861
vt 0.300455 0.739861
vt 0.230906 0.723749
vt 0.253081 0.716544
vt 0.230906 0.747066
vt 0.273314 0.716544
vt 0.279976 0.716544
vt 0.286884 0.716544
vt 0.293547 0.716544
vt 0.293547 0.738719
vt 0.286884 0.738719
vt 0.266786 0.735408
vt 0.253081 0.754271
vt 0.293547 0.752424
vt 0.286884 0.752424
vt 0.464998 0.001992
vt 0.633628 0.001992
vt 0.633628 0.428133
vt 0.464998 0.428133
vt 0.325552 0.723551
vt 0.325552 0.730982
vt 0.314026 0.723975
vt 0.314026 0.716544
vt 0.342515 0.788391
vt 0.342515 0.795822
vt 0.330989 0.788815
vt 0.330989 0.781385
vt 0.359478 0.788391
vt 0.359478 0.795822
vt 0.347952 0.788815
vt 0.347952 0.781385
vt 0.376441 0.788391
vt 0.376441 0.795822
vt 0.364915 0.788815
vt 0.364915 0.781385
vt 0.792233 0.770904
vt 0.792233 0.778334
vt 0.663582 0.778334
vt 0.663582 0.770904
vt 0.183631 0.716544
vt 0.183631 0.845195
vt 0.176624 0.845195
vt 0.176624 0.716544
vt 0.001734 0.716544
vt 0.170364 0.716544
vt 0.170364 0.998008
vt 0.001734 0.998008
vt 0.792233 0.783569
vt 0.792233 0.790999
vt 0.663582 0.790999
vt 0.663582 0.783569
vt 0.792233 0.785341
vt 0.663582 0.785341
vt 0.197201 0.716544
vt 0.197201 0.845195
vt 0.190194 0.845195
vt 0.190194 0.716544
vt 0.792233 0.798006
vt 0.663582 0.798006
vt 0.792233 0.797086
vt 0.792233 0.804516
vt 0.663582 0.804516
vt 0.663582 0.797086
vt 0.210772 0.716544
vt 0.210772 0.845195
vt 0.203765 0.845195
vt 0.203765 0.716544
vt 0.792233 0.809750
vt 0.792233 0.817181
vt 0.663582 0.817181
vt 0.663582 0.809750
vt 0.792233 0.811523
vt 0.663582 0.811523
vt 0.224342 0.716544
vt 0.224342 0.845195
vt 0.217336 0.845195
vt 0.217336 0.716544
vt 0.792233 0.824188
vt 0.663582 0.824188
vt 0.393405 0.781385
vt 0.393405 0.788815
vt 0.381878 0.795822
vt 0.381878 0.788391
vt 0.410368 0.781385
vt 0.410368 0.788815
vt 0.398841 0.795822
vt 0.398841 0.788391
vt 0.427331 0.781385
vt 0.427331 0.788815
vt 0.415804 0.795822
vt 0.415804 0.788391
vt 0.444294 0.781385
vt 0.444294 0.788815
vt 0.432768 0.795822
vt 0.432768 0.788391
vt 0.792233 0.777911
vt 0.834536 0.629745
vt 0.853399 0.616040
vt 0.868639 0.857747
vt 0.792233 0.816757
vt 0.792233 0.804092
vt 0.792233 0.790575
vt 0.663582 0.816757
vt 0.587176 0.857747
vt 0.587176 0.431607
vt 0.663582 0.777911
vt 0.663582 0.790575
vt 0.663582 0.804092
vt 0.822878 0.593865
vt 0.868639 0.431607
vt 0.846194 0.593865
vt 0.562973 0.616040
vt 0.410882 0.777911
vt 0.334475 0.431607
vt 0.570178 0.593865
vt 0.581836 0.629745
vt 0.539532 0.777911

# vertex normals
vn 0.000000 -1.000000 0.000000
vn 0.000000 0.000000 -1.000000
vn 0.927957 -0.115166 -0.354448
vn 0.927957 -0.115166 -0.354448
vn 0.927956 -0.372689 0.000000
vn 0.927957 0.301510 -0.219062
vn 0.927957 0.301510 -0.219062
vn 0.927957 -0.115166 0.354448
vn 0.927956 -0.115166 0.354448
vn 0.927956 -0.115166 0.354448
vn 0.927957 0.301510 0.219062
vn 0.927957 0.301510 0.219062
vn -1.000000 0.000000 0.000000
vn 0.000000 -0.309017 -0.951057
vn 0.506733 -0.266404 -0.819909
vn 0.506732 -0.862104 0.000000
vn 0.506732 -0.862104 0.000000
vn 0.000000 0.809017 -0.587786
vn 0.000000 -0.309017 0.951057
vn 0.506732 0.697457 -0.506732
vn 0.506732 0.697457 -0.506732
vn 0.506732 0.697457 -0.506732
vn 0.506732 -0.266405 0.819909
vn 0.506732 -0.266405 0.819909
vn 0.506732 -0.266405 0.819909
vn 0.000000 0.809017 0.587786
vn 0.506732 0.697457 0.506732
vn 0.506732 0.697457 0.506732
vn 0.506732 0.697457 0.506732
vn 0.000000 0.000000 1.000000
vn 0.000000 0.000000 1.000000
vn 1.000000 0.000000 0.000000
vn -0.519445 0.854504 0.000000
vn 0.000000 1.000000 0.000000
vn 0.519445 -0.854504 0.000000
vn 0.000000 0.000000 -1.000000
vn 1.000000 0.000000 0.000000
vn 1.000000 -0.000000 0.000000
vn 1.000000 -0.000000 0.000000
vn 1.000000 -0.000000 0.000000
vn 1.000000 0.000000 0.000000
vn 1.000000 0.000000 0.000000
vn 1.000000 -0.000000 0.000000

# Mesh
g pCube7
usemtl lambert1
f 4/4/1 1/1/1 2/2/1
f 2/2/1 3/3/1 4/4/1
f 1/8/2 5/5/2 6/6/2
f 6/6/2 2/7/2 1/8/2
f 7/9/3 8/10/4 9/11/3
f 10/12/5 7/9/5 9/11/5
f 8/10/6 11/13/6 9/11/7
f 12/14/8 10/12/9 9/11/10
f 11/13/11 12/14/11 9/11/12
f 5/18/13 1/15/13 4/16/13
f 4/16/13 13/17/13 5/18/13
f 17/22/14 14/19/14 15/20/14
f 15/20/14 16/21/14 17/22/14
f 19/26/1 17/23/1 16/24/1
f 16/24/1 18/25/1 19/26/1
f 15/28/15 8/10/15 7/9/15
f 7/9/15 16/27/15 15/28/15
f 16/27/17 7/9/16 10/12/16
f 10/12/16 18/29/17 16/27/17
f 14/19/18 20/30/18 21/31/18
f 21/31/18 15/20/18 14/19/18
f 23/35/19 19/32/19 18/33/19
f 18/33/19 22/34/19 23/35/19
f 21/36/22 11/13/20 8/10/21
f 8/10/21 15/28/20 21/36/22
f 18/29/25 10/12/23 12/14/24
f 12/14/24 22/37/24 18/29/25
f 20/39/26 23/35/26 22/34/26
f 22/34/26 21/38/26 20/39/26
f 22/37/29 12/14/27 11/13/28
f 11/13/28 21/36/29 22/37/29
f 13/43/30 4/40/30 3/41/30
f 3/41/30 24/42/30 13/43/30
f 28/47/30 25/44/31 26/45/30
f 26/45/30 27/46/31 28/47/30
f 32/51/30 29/48/31 30/49/30
f 30/49/30 31/50/31 32/51/30
f 36/55/30 33/52/30 34/53/30
f 34/53/30 35/54/30 36/55/30
f 40/59/30 37/56/31 38/57/30
f 38/57/30 39/58/31 40/59/30
f 42/63/32 28/60/32 27/61/32
f 27/61/32 41/62/32 42/63/32
f 42/67/33 43/64/33 25/65/33
f 25/65/33 28/66/33 42/67/33
f 5/71/34 13/68/34 24/69/34
f 24/69/34 6/70/34 5/71/34
f 45/75/32 32/72/32 31/73/32
f 31/73/32 44/74/32 45/75/32
f 27/61/35 26/76/35 46/77/35
f 46/77/35 41/62/35 27/61/35
f 45/81/33 47/78/33 29/79/33
f 29/79/33 32/80/33 45/81/33
f 31/73/35 30/82/35 48/83/35
f 48/83/35 44/74/35 31/73/35
f 50/87/32 36/84/32 35/85/32
f 35/85/32 49/86/32 50/87/32
f 50/91/33 51/88/33 33/89/33
f 33/89/33 36/90/33 50/91/33
f 53/95/32 40/92/32 39/93/32
f 39/93/32 52/94/32 53/95/32
f 35/85/35 34/96/35 54/97/35
f 54/97/35 49/86/35 35/85/35
f 53/101/33 55/98/33 37/99/33
f 37/99/33 40/100/33 53/101/33
f 39/93/35 38/102/35 56/103/35
f 56/103/35 52/94/35 39/93/35
f 41/107/36 46/104/2 43/105/36
f 43/105/36 42/106/2 41/107/36
f 44/111/36 48/108/2 47/109/36
f 47/109/36 45/110/2 44/111/36
f 49/115/2 54/112/2 51/113/2
f 51/113/2 50/114/2 49/115/2
f 52/119/36 56/116/2 55/117/36
f 55/117/36 53/118/2 52/119/36
f 26/76/32 25/120/32 20/121/32
f 26/76/32 20/121/32 14/122/32
f 26/76/32 14/122/32 6/123/32
f 6/123/32 38/102/32 37/124/32
f 6/123/32 37/124/32 34/96/32
f 6/123/32 34/96/32 33/125/32
f 6/123/32 33/125/32 30/82/32
f 6/123/32 30/82/32 29/126/32
f 6/123/32 29/126/32 26/76/32
f 54/97/37 55/127/37 56/103/32
f 56/103/32 24/128/32 3/129/38
f 3/129/38 43/130/39 46/77/37
f 3/129/38 46/77/37 47/131/37
f 3/129/38 47/131/37 48/83/37
f 3/129/38 48/83/37 51/132/37
f 3/129/38 51/132/37 54/97/37
f 56/103/32 3/129/38 54/97/37
f 37/124/32 55/127/37 54/97/37
f 54/97/37 34/96/32 37/124/32
f 33/125/32 51/132/37 48/83/37
f 48/83/37 30/82/32 33/125/32
f 29/126/32 47/131/37 46/77/37
f 46/77/37 26/76/32 29/126/32
f 6/123/32 24/128/32 56/103/32
f 56/103/32 38/102/32 6/123/32
f 17/135/42 19/133/40 3/129/38
f 3/129/38 2/134/41 17/135/42
f 2/134/41 6/123/32 14/122/32
f 14/122/32 17/135/42 2/134/41
f 19/139/40 23/136/43 43/137/39
f 43/137/39 3/138/38 19/139/40
f 43/137/39 23/136/43 20/140/32
f 20/140/32 25/141/32 43/137/39
