# This file uses centimeters as units for non-parametric coordinates.

mtllib Porthole.mtl
g default
v 0.612372 1.478398 -0.103352
v 0.000000 1.732051 -0.103352
v -0.612372 1.478398 -0.103352
v -0.866025 0.866025 -0.103352
v -0.612372 0.253653 -0.103352
v 0.000000 -0.000000 -0.103352
v 0.612372 0.253653 -0.103352
v 0.866025 0.866025 -0.103352
v 0.609879 1.475905 0.231161
v 0.000000 1.728525 0.231161
v -0.609879 1.475905 0.231161
v -0.862500 0.866025 0.231161
v -0.609879 0.256146 0.231161
v 0.000000 0.003526 0.231161
v 0.609879 0.256146 0.231161
v 0.862500 0.866025 0.231161
v 0.528171 1.394197 0.269256
v 0.000000 1.612972 0.269256
v -0.528171 1.394197 0.269256
v -0.746947 0.866025 0.269256
v -0.528171 0.337854 0.269256
v 0.000000 0.119079 0.269256
v 0.528171 0.337854 0.269256
v 0.746947 0.866025 0.269256
v 0.517429 1.383455 0.135686
v -0.000000 1.597781 0.135686
v -0.517429 1.383455 0.135686
v -0.731756 0.866025 0.135686
v -0.517429 0.348596 0.135686
v -0.000000 0.134270 0.135686
v 0.517429 0.348596 0.135686
v 0.731756 0.866025 0.135686
v 0.000000 0.866025 0.147520
vt 0.979227 0.587385
vt 0.999825 0.796527
vt 0.899672 0.794875
vt 0.882350 0.611637
vt 0.968107 1.000000
vt 0.015153 0.130216
vt 0.200874 0.000000
vt 0.204711 0.098316
vt 0.410000 0.019306
vt 0.387894 0.116481
vt 0.606662 0.095411
vt 0.559005 0.183096
vt 0.775195 0.222510
vt 0.705422 0.293866
vt 0.902611 0.390824
vt 0.815999 0.440426
vt 0.865425 0.792563
vt 0.848462 0.618924
vt 0.034947 0.162040
vt 0.205566 0.132953
vt 0.379112 0.149993
vt 0.541443 0.213013
vt 0.680363 0.317862
vt 0.785347 0.456671
vt 0.217685 0.609969
vt 0.371612 0.546210
vt 0.063759 0.546210
vt 0.000000 0.392283
vt 0.063759 0.238357
vt 0.217685 0.174598
vt 0.371612 0.238357
vt 0.435371 0.392283
vt 0.217685 0.392283
vt 0.750099 0.476298
vt 0.809215 0.628188
vt 0.651813 0.346372
vt 0.521766 0.248234
vt 0.369780 0.189227
vt 0.207218 0.173220
vt 0.044010 0.201035
vt 0.824927 0.790522
vt 0.835024 0.962477
vt 0.795593 0.953147
vt 0.866059 0.982007
vt 0.000000 0.031185
vn 0.382665 0.923836 0.009737
vn 0.382665 0.923836 0.009737
vn 0.382665 0.923836 0.009737
vn 0.382665 0.923836 0.009737
vn -0.382665 0.923836 0.009737
vn -0.382665 0.923836 0.009737
vn -0.382665 0.923836 0.009737
vn -0.382665 0.923836 0.009737
vn -0.923836 0.382665 0.009737
vn -0.923836 0.382665 0.009737
vn -0.923836 0.382665 0.009737
vn -0.923836 0.382665 0.009737
vn -0.923836 -0.382665 0.009737
vn -0.923836 -0.382665 0.009737
vn -0.923836 -0.382665 0.009737
vn -0.923836 -0.382665 0.009737
vn -0.382665 -0.923836 0.009737
vn -0.382665 -0.923836 0.009737
vn -0.382665 -0.923836 0.009737
vn -0.382665 -0.923836 0.009737
vn 0.382665 -0.923836 0.009737
vn 0.382665 -0.923836 0.009737
vn 0.382665 -0.923836 0.009737
vn 0.382665 -0.923836 0.009737
vn 0.923836 -0.382665 0.009737
vn 0.923836 -0.382665 0.009737
vn 0.923836 -0.382665 0.009737
vn 0.923836 -0.382665 0.009737
vn 0.923836 0.382665 0.009737
vn 0.923836 0.382665 0.009737
vn 0.923836 0.382665 0.009737
vn 0.923836 0.382665 0.009737
vn 0.128612 0.310496 0.941834
vn 0.128612 0.310496 0.941834
vn 0.128612 0.310496 0.941834
vn 0.128612 0.310496 0.941834
vn -0.128612 0.310496 0.941834
vn -0.128612 0.310496 0.941834
vn -0.128612 0.310496 0.941834
vn -0.128612 0.310496 0.941834
vn -0.310496 0.128612 0.941834
vn -0.310496 0.128612 0.941834
vn -0.310496 0.128612 0.941834
vn -0.310496 0.128612 0.941834
vn -0.310496 -0.128612 0.941834
vn -0.310496 -0.128612 0.941834
vn -0.310496 -0.128612 0.941834
vn -0.310496 -0.128612 0.941834
vn -0.128612 -0.310496 0.941834
vn -0.128612 -0.310496 0.941834
vn -0.128612 -0.310496 0.941834
vn -0.128612 -0.310496 0.941834
vn 0.128612 -0.310496 0.941834
vn 0.128612 -0.310496 0.941834
vn 0.128612 -0.310496 0.941834
vn 0.128612 -0.310496 0.941834
vn 0.310496 -0.128612 0.941834
vn 0.310496 -0.128612 0.941834
vn 0.310496 -0.128612 0.941834
vn 0.310496 -0.128612 0.941834
vn 0.310496 0.128612 0.941834
vn 0.310496 0.128612 0.941834
vn 0.310496 0.128612 0.941834
vn 0.310496 0.128612 0.941834
vn -0.380588 -0.918821 0.104499
vn -0.380588 -0.918821 0.104499
vn -0.380588 -0.918821 0.104499
vn -0.380588 -0.918821 0.104499
vn 0.380588 -0.918821 0.104499
vn 0.380588 -0.918821 0.104499
vn 0.380588 -0.918821 0.104499
vn 0.380588 -0.918821 0.104499
vn 0.918821 -0.380588 0.104499
vn 0.918821 -0.380588 0.104499
vn 0.918821 -0.380588 0.104499
vn 0.918821 -0.380588 0.104499
vn 0.918821 0.380588 0.104499
vn 0.918821 0.380588 0.104499
vn 0.918821 0.380588 0.104499
vn 0.918821 0.380588 0.104499
vn 0.380588 0.918821 0.104499
vn 0.380588 0.918821 0.104499
vn 0.380588 0.918821 0.104499
vn 0.380588 0.918821 0.104499
vn -0.380588 0.918821 0.104499
vn -0.380588 0.918821 0.104499
vn -0.380588 0.918821 0.104499
vn -0.380588 0.918821 0.104499
vn -0.918821 0.380588 0.104500
vn -0.918821 0.380588 0.104500
vn -0.918821 0.380588 0.104500
vn -0.918821 0.380588 0.104500
vn -0.918821 -0.380588 0.104500
vn -0.918821 -0.380588 0.104500
vn -0.918821 -0.380588 0.104500
vn -0.918821 -0.380588 0.104500
vn 0.006698 0.016171 0.999847
vn 0.006698 0.016171 0.999847
vn 0.006698 0.016171 0.999847
vn -0.006698 0.016171 0.999847
vn -0.006698 0.016171 0.999847
vn -0.006698 0.016171 0.999847
vn -0.016171 0.006698 0.999847
vn -0.016171 0.006698 0.999847
vn -0.016171 0.006698 0.999847
vn -0.016171 -0.006698 0.999847
vn -0.016171 -0.006698 0.999847
vn -0.016171 -0.006698 0.999847
vn -0.006698 -0.016171 0.999847
vn -0.006698 -0.016171 0.999847
vn -0.006698 -0.016171 0.999847
vn 0.006698 -0.016171 0.999847
vn 0.006698 -0.016171 0.999847
vn 0.006698 -0.016171 0.999847
vn 0.016171 -0.006698 0.999847
vn 0.016171 -0.006698 0.999847
vn 0.016171 -0.006698 0.999847
vn 0.016171 0.006698 0.999847
vn 0.016171 0.006698 0.999847
vn 0.016171 0.006698 0.999847
s off
g pSphere1
usemtl initialShadingGroup
f 1/1/1 2/2/2 10/3/3 9/4/4
f 2/2/5 3/5/6 11/44/7 10/3/8
f 3/45/9 4/7/10 12/8/11 11/6/12
f 4/7/13 5/9/14 13/10/15 12/8/16
f 5/9/17 6/11/18 14/12/19 13/10/20
f 6/11/21 7/13/22 15/14/23 14/12/24
f 7/13/25 8/15/26 16/16/27 15/14/28
f 8/15/29 1/1/30 9/4/31 16/16/32
f 9/4/33 10/3/34 18/17/35 17/18/36
f 10/3/37 11/44/38 19/42/39 18/17/40
f 11/6/41 12/8/42 20/20/43 19/19/44
f 12/8/45 13/10/46 21/21/47 20/20/48
f 13/10/49 14/12/50 22/22/51 21/21/52
f 14/12/53 15/14/54 23/23/55 22/22/56
f 15/14/57 16/16/58 24/24/59 23/23/60
f 16/16/61 9/4/62 17/18/63 24/24/64
f 17/18/65 18/17/66 26/41/67 25/35/68
f 18/17/69 19/42/70 27/43/71 26/41/72
f 19/19/73 20/20/74 28/39/75 27/40/76
f 20/20/77 21/21/78 29/38/79 28/39/80
f 21/21/81 22/22/82 30/37/83 29/38/84
f 22/22/85 23/23/86 31/36/87 30/37/88
f 23/23/89 24/24/90 32/34/91 31/36/92
f 24/24/93 17/18/94 25/35/95 32/34/96
f 25/26/97 26/25/98 33/33/99
f 26/25/100 27/27/101 33/33/102
f 27/27/103 28/28/104 33/33/105
f 28/28/106 29/29/107 33/33/108
f 29/29/109 30/30/110 33/33/111
f 30/30/112 31/31/113 33/33/114
f 31/31/115 32/32/116 33/33/117
f 32/32/118 25/26/119 33/33/120
